<svg width="432" height="57" viewBox="0 0 432 57" fill="none" xmlns="http://www.w3.org/2000/svg">
<path d="M25 56.875V48.75H16.875V40.625H8.75V32.5H0.625V24.375H8.75V16.25H16.875V8.125H25V0H41.25V8.125H33.125V16.25H25V24.375H16.875V32.5H25V40.625H33.125V48.75H41.25V56.875H25ZM114.375 0V8.125H106.25V0H114.375ZM98.125 8.125H106.25V16.25H98.125V8.125ZM90 16.25H98.125V24.375H90V16.25ZM81.875 24.375H90V32.5H81.875V24.375ZM73.75 32.5H81.875V40.625H73.75V32.5ZM65.625 40.625H73.75V48.75H65.625V40.625ZM57.5 48.75H65.625V56.875H57.5V48.75ZM122.5 56.875V0H138.75V24.375H163.125V0H179.375V56.875H163.125V32.5H138.75V56.875H122.5ZM211.875 56.875V8.125H195.625V0H244.375V8.125H228.125V56.875H211.875ZM252.5 56.875V0H268.75V8.125H276.875V16.25H285V8.125H293.125V0H309.375V56.875H293.125V24.375H285V40.625H276.875V24.375H268.75V56.875H252.5ZM325.625 56.875V0H341.875V48.75H374.375V56.875H325.625ZM390.625 56.875V48.75H398.75V40.625H406.875V32.5H415V24.375H406.875V16.25H398.75V8.125H390.625V0H406.875V8.125H415V16.25H423.125V24.375H431.25V32.5H423.125V40.625H415V48.75H406.875V56.875H390.625Z" fill="black"/>
</svg>
